<?xml version="1.0" encoding="UTF-8"?>
<svg version="1.1" xmlns="http://www.w3.org/2000/svg" width="1563" height="1563">
<path d="M0 0 C515.79 0 1031.58 0 1563 0 C1563 515.79 1563 1031.58 1563 1563 C1047.21 1563 531.42 1563 0 1563 C0 1047.21 0 531.42 0 0 Z " fill="#123051" transform="translate(0,0)"/>
<path d="M0 0 C4.00614583 1.93887186 4.90073992 5.56787815 6.5 9.5546875 C6.84506592 10.37670654 7.19013184 11.19872559 7.5456543 12.0456543 C8.53156663 14.41543411 9.48880712 16.79480823 10.4375 19.1796875 C11.07945312 20.75556641 11.07945312 20.75556641 11.734375 22.36328125 C14.34795388 29.12842966 16.04463283 36.06994243 17.4375 43.1796875 C17.60958984 43.98881592 17.78167969 44.79794434 17.95898438 45.6315918 C19.58330475 54.02848994 19.74415563 62.2338822 19.69824219 70.75170898 C19.68753207 73.11012568 19.69819075 75.46777831 19.7109375 77.82617188 C19.74956648 117.65734366 3.3956533 155.30721657 -24.18554688 183.75146484 C-25.40746967 185.01888476 -26.60413226 186.31055049 -27.796875 187.60546875 C-42.92448795 203.61457795 -63.40358834 213.55935884 -82.56811523 223.79833984 C-89.74946491 227.64047846 -96.86479359 231.57892434 -103.9375 235.6171875 C-112.99493036 240.78417267 -122.15575767 245.74006463 -131.36120605 250.63641357 C-140.31369551 255.40138934 -149.1721515 260.30965297 -157.98046875 265.3359375 C-166.19722064 270.01000081 -174.51592287 274.48128762 -182.85180664 278.93847656 C-191.12549452 283.37467095 -199.30465315 287.96082176 -207.46118164 292.6081543 C-215.73626227 297.31078465 -224.1166955 301.79240382 -232.5625 306.1796875 C-229.49220736 308.61822329 -226.32175354 310.47029314 -222.85546875 312.296875 C-221.72351074 312.89701416 -220.59155273 313.49715332 -219.42529297 314.11547852 C-218.82666443 314.43122833 -218.22803589 314.74697815 -217.61126709 315.07229614 C-207.97409411 320.15887157 -198.40093643 325.33761987 -188.9375 330.7421875 C-179.79492781 335.95988171 -170.55590068 340.97502199 -161.27319336 345.93847656 C-152.98243808 350.38382216 -144.78690822 354.98029527 -136.61328125 359.63671875 C-130.47483337 363.12486183 -124.2830922 366.47790311 -118.02392578 369.74316406 C-111.25712138 373.29458177 -104.6364133 377.09267148 -98.00195312 380.8840332 C-90.42421326 385.18838298 -82.74648339 389.27455058 -75.03393555 393.32928467 C-59.7620144 401.36950198 -45.65415691 409.8075318 -32.5625 421.1796875 C-31.63695312 421.97117187 -30.71140625 422.76265625 -29.7578125 423.578125 C-5.31816559 445.03897838 10.67755081 475.62373687 17.4375 507.1796875 C17.62586426 508.04198975 17.81422852 508.90429199 18.00830078 509.79272461 C19.6218081 518.12011177 19.74378126 526.3033357 19.69824219 534.75170898 C19.68753207 537.11012568 19.69819075 539.46777831 19.7109375 541.82617188 C19.7350726 566.71239604 13.32631573 591.29920748 1.4375 613.1796875 C-2.37423564 612.58546255 -5.25471683 611.47226726 -8.6328125 609.625 C-9.60259033 609.097854 -10.57236816 608.57070801 -11.5715332 608.02758789 C-13.11393677 607.1747522 -13.11393677 607.1747522 -14.6875 606.3046875 C-16.28307739 605.43154907 -16.28307739 605.43154907 -17.91088867 604.54077148 C-25.352757 600.45005332 -32.73621272 596.26290672 -40.05712891 591.95947266 C-50.2077746 585.99634846 -60.6325389 580.53798875 -71.03671265 575.03488159 C-82.43862512 569.00059408 -93.79364859 562.90199258 -105.04345703 556.58789062 C-110.57964197 553.49303555 -116.13458247 550.43188508 -121.6875 547.3671875 C-122.30913025 547.02395447 -122.9307605 546.68072144 -123.57122803 546.3270874 C-133.14637795 541.0417289 -142.75257067 535.81618843 -152.37744141 530.62182617 C-158.42592776 527.35249829 -164.43448861 524.02268645 -170.41381836 520.62890625 C-176.37956733 517.25526719 -182.40703988 513.99840086 -188.4375 510.7421875 C-198.52043671 505.29388868 -208.58661295 499.82210587 -218.5625 494.1796875 C-219.29581543 493.7662207 -220.02913086 493.35275391 -220.78466797 492.92675781 C-234.25240907 485.29709042 -246.26978991 476.85311994 -257.5625 466.1796875 C-258.36171875 465.44492188 -259.1609375 464.71015625 -259.984375 463.953125 C-285.65420273 439.50956292 -303.10382866 402.25402808 -304.66729927 366.80343819 C-304.72266427 364.39156457 -304.75106641 361.98105067 -304.76782227 359.56860352 C-304.78267166 358.21232346 -304.78267166 358.21232346 -304.79782104 356.8286438 C-304.8291764 353.8636527 -304.85413606 350.89864657 -304.87890625 347.93359375 C-304.89954309 345.83780064 -304.92054095 343.74201106 -304.94187927 341.64622498 C-304.98570749 337.25269634 -305.02662383 332.85915415 -305.06518555 328.46557617 C-305.11391227 322.91636724 -305.167599 317.36722167 -305.22312832 311.81807709 C-305.33750212 300.38052389 -305.43643731 288.94293686 -305.52120972 277.50512695 C-305.55120043 273.49826447 -305.58835439 269.49153342 -305.62954235 265.48477268 C-305.65876441 262.43650959 -305.67655216 259.38818651 -305.6953125 256.33984375 C-305.70780533 255.34368546 -305.72029816 254.34752716 -305.73316956 253.32118225 C-305.76924945 242.71838556 -303.92305365 232.48537302 -301.5625 222.1796875 C-301.40185059 221.44169922 -301.24120117 220.70371094 -301.07568359 219.94335938 C-292.60533649 182.26218906 -266.22209249 149.25343338 -234.5625 128.1796875 C-221.17626925 119.71388306 -207.07379067 112.43227417 -193.08306885 105.03213501 C-171.95087154 93.95193141 -171.95087154 93.95193141 -151.3125 81.9921875 C-147.04479241 79.38495317 -142.62138899 77.1837095 -138.13330078 74.98217773 C-133.0592831 72.47350029 -128.14089819 69.73699363 -123.22363281 66.93603516 C-117.09068769 63.45239486 -110.89487231 60.09110017 -104.6875 56.7421875 C-95.46359318 51.76109164 -86.27761626 46.7191648 -77.12451172 41.609375 C-71.85652198 38.66966203 -66.58478763 35.73668366 -61.3125 32.8046875 C-60.16217285 32.1648291 -59.0118457 31.5249707 -57.82666016 30.86572266 C-50.44630632 26.76598749 -43.04449141 22.70809126 -35.625 18.6796875 C-29.99829421 15.62431768 -24.39648211 12.54678853 -18.875 9.3046875 C-17.53695312 8.51964844 -17.53695312 8.51964844 -16.171875 7.71875 C-14.3030747 6.61649353 -12.43901477 5.50618457 -10.578125 4.390625 C-9.60359375 3.82601562 -8.6290625 3.26140625 -7.625 2.6796875 C-6.77035156 2.174375 -5.91570312 1.6690625 -5.03515625 1.1484375 C-2.5625 0.1796875 -2.5625 0.1796875 0 0 Z " fill="#D6A330" transform="translate(997.5625,560.8203125)"/>
<path d="M0 0 C1.60622751 -0.00573794 3.21246092 -0.0098393 4.81869507 -0.01324463 C6.16040048 -0.01693243 6.16040048 -0.01693243 7.52921104 -0.02069473 C10.12896291 0.00108016 12.6487843 0.17899304 15.2265625 0.515625 C16.54394409 0.68723145 16.54394409 0.68723145 17.88793945 0.86230469 C18.79116943 0.99024414 19.69439941 1.11818359 20.625 1.25 C21.5843042 1.38567383 22.5436084 1.52134766 23.53198242 1.66113281 C38.23180186 3.8352485 51.48340277 7.85723125 65 14 C65.68626465 14.30953613 66.3725293 14.61907227 67.07958984 14.93798828 C104.68764959 32.13968093 132.9662635 65.01341437 147.6875 103.30078125 C155.24856414 124.0697786 156.58432837 144.71733402 156.45410156 166.64990234 C156.45297047 169.35263661 156.45343694 172.05532762 156.45587158 174.75805664 C156.45794861 180.52869577 156.44561519 186.29915118 156.42292023 192.06974411 C156.39013073 200.41257265 156.379966 208.75531419 156.37496826 217.09820016 C156.36625734 230.64054942 156.3397572 244.18280119 156.30175781 257.72509766 C156.26492797 270.86441568 156.23667025 284.00370704 156.21972656 297.14306641 C156.21867567 297.95572328 156.21762477 298.76838015 156.21654204 299.60566299 C156.21132112 303.68334439 156.20626647 307.76102597 156.20129442 311.83870769 C156.15996359 345.55920909 156.08963133 379.2795925 156 413 C152.80120463 413.02688137 149.60243875 413.04304683 146.40356445 413.05737305 C145.05385937 413.06891041 145.05385937 413.06891041 143.67688751 413.08068085 C136.94855522 413.10326011 130.72557444 412.45941736 124.1875 410.8125 C123.22376465 410.58473877 122.2600293 410.35697754 121.26708984 410.12231445 C94.93031338 403.73303627 72.20316105 391.98052838 52 374 C50.71065607 372.93468256 49.41945579 371.8716002 48.125 370.8125 C44.34526144 367.53856587 41.18745388 363.84298685 38 360 C37.56526367 359.49355957 37.13052734 358.98711914 36.68261719 358.46533203 C28.29405604 348.68057308 21.78686374 338.50409613 16 327 C15.63922363 326.30100586 15.27844727 325.60201172 14.90673828 324.88183594 C4.91650374 305.2882639 -0.18191341 283.4838547 -0.12025452 261.55357361 C-0.12110894 260.43107399 -0.12196337 259.30857437 -0.12284368 258.15205961 C-0.12448504 254.40726482 -0.11899916 250.66251525 -0.11352539 246.91772461 C-0.1132432 244.2267751 -0.11335789 241.53582833 -0.1139679 238.84487915 C-0.11449096 233.05989556 -0.11136691 227.27492329 -0.10573006 221.48994255 C-0.09758555 213.12594436 -0.09499681 204.76195161 -0.09374207 196.39794988 C-0.09155618 182.8262506 -0.08490866 169.25455734 -0.07543945 155.68286133 C-0.06625335 142.50317413 -0.05917838 129.32348858 -0.05493164 116.14379883 C-0.05466892 115.33071355 -0.05440619 114.51762827 -0.05413551 113.67990404 C-0.05283042 109.6006883 -0.05156673 105.52147256 -0.05032361 101.44225681 C-0.03996542 67.62816684 -0.02235972 33.81408416 0 0 Z " fill="#D6A330" transform="translate(503,578)"/>
<path d="M0 0 C0.433125 0.598125 0.86625 1.19625 1.3125 1.8125 C4.3966664 5.96954495 4.3966664 5.96954495 9.1875 7.6875 C10.115625 7.790625 11.04375 7.89375 12 8 C11.67 7.67 11.34 7.34 11 7 C10.875 4.5 10.875 4.5 11 2 C11.33 1.67 11.66 1.34 12 1 C16.27765145 1.16142081 18.33316458 1.31561628 21.375 4.4375 C23 7 23 7 24 9 C24.66 8.67 25.32 8.34 26 8 C28.9375 7.6875 28.9375 7.6875 32 8 C33.9375 9.625 33.9375 9.625 35 12 C34.875 15.125 34.875 15.125 34 18 C31 20 31 20 27.875 19.6875 C25 19 25 19 24 18 C23.3503125 19.423125 23.3503125 19.423125 22.6875 20.875 C21 24 21 24 18 26 C14.875 26.1875 14.875 26.1875 12 26 C11 25 11 25 10.875 22.5 C11 20 11 20 12 19 C8.2347642 19.25672062 6.44160489 19.59325866 3.625 22.1875 C1.71684456 25.49007672 1.42879041 27.246337 2 31 C3.53224602 32.99065545 4.44890158 33.87688003 6.92114258 34.42919922 C13.23750233 34.43062648 17.9986315 32.76186126 23.6875 30.125 C25.31556467 29.39655367 26.94445323 28.66994551 28.57421875 27.9453125 C29.33702148 27.6047583 30.09982422 27.2642041 30.88574219 26.91333008 C36.63107279 24.43142687 41.76330777 22.95879843 48 24 C51.75647595 25.61175293 55.00926017 27.40057034 57.1953125 30.9296875 C58.49993491 34.28624031 58.67111205 37.50350624 58 41 C56.02970454 44.52379766 53.89793345 46.70068885 50 48 C43.84 48.56 43.84 48.56 40.5625 46.375 C38.60355395 43.397402 38.68214094 41.49644963 39 38 C40.65 38 42.3 38 44 38 C44.144375 38.804375 44.28875 39.60875 44.4375 40.4375 C44.74135249 42.92103706 44.74135249 42.92103706 46 44 C46.66 44 47.32 44 48 44 C48.25028811 42.41986783 48.47440946 40.83557694 48.6875 39.25 C48.81511719 38.36828125 48.94273437 37.4865625 49.07421875 36.578125 C48.98236791 33.38751699 48.21563584 32.25112658 46 30 C40.53364226 28.17788075 36.43422933 28.56157664 31.30078125 31.046875 C29.63003308 31.93301768 27.96734371 32.83449983 26.3125 33.75 C25.47138672 34.1934375 24.63027344 34.636875 23.76367188 35.09375 C16.56405628 38.72038085 16.56405628 38.72038085 12.28515625 45.18359375 C11.91391823 48.94156462 11.74968825 51.38080778 13.1875 54.9375 C15.6289326 57.71568193 17.20810843 58.75984958 20.89453125 59.25390625 C24.44636334 59.45818602 26.43389775 59.35381391 29.5 57.4375 C31.50478781 54.17971981 31.28862859 51.75217167 31 48 C30.34 47.67 29.68 47.34 29 47 C28.67 48.65 28.34 50.3 28 52 C26.35 51.67 24.7 51.34 23 51 C22.505 48.525 22.505 48.525 22 46 C24.44455675 43.64946466 25.55029609 43 29 43 C32.80193516 44.26731172 34.00476996 45.54671723 36 49 C36.67907735 52.98957946 36.17886254 54.66782671 34.25 58.25 C32.1082415 60.86770483 30.9720767 61.67630197 28 63 C33.54181522 61.40627536 37.57303318 59.81211032 42 56 C46.17068401 53.74557621 50.33989138 53.3981073 55 54 C59.0226217 55.56435288 60.59149109 56.38723663 63 60 C63.43660384 63.30571478 63.71042728 65.81419387 61.94921875 68.75390625 C60.16506981 70.93804138 58.54181233 72.72909383 56 74 C53 74.1875 53 74.1875 50 74 C48 72 48 72 47.875 69.375 C47.91625 68.59125 47.9575 67.8075 48 67 C49.98 66.505 49.98 66.505 52 66 C52.33 67.32 52.66 68.64 53 70 C53.66 69.67 54.32 69.34 55 69 C55.2502157 66.08365871 55.2502157 66.08365871 55 63 C51.48746854 60.65831236 50.13530644 60.50376323 46 61 C43.30009338 62.79993774 41.4581135 64.083773 40 67 C39.40031249 72.27725011 40.72835275 74.88707202 44 79 C48.47720558 81.98480372 52.75134712 81.47441195 58 81 C63.33422336 79.22192555 65.66991492 76.32011037 69 72 C69.98290968 70.98319689 70.97334787 69.97261781 72 69 C72.37125 69.886875 72.7425 70.77375 73.125 71.6875 C75.75548585 76.33469167 78.81984269 79.2732809 84 81 C89.052637 81.55523483 94.29957748 82.12502543 98.625 79.0625 C101.67429186 75.13051839 102.56527021 71.95284378 102 67 C100.23496686 64.07856583 99.04152365 62.52076183 96 61 C91.94857881 60.74139865 90.45662331 60.69558446 87 63 C86.74984127 66.58357241 86.74984127 66.58357241 87 70 C87.66 70 88.32 70 89 70 C89.495 68.02 89.495 68.02 90 66 C91.98 66.495 91.98 66.495 94 67 C94.1875 69.375 94.1875 69.375 94 72 C91 74 91 74 87.625 74 C82.93512033 72.70624009 81.51859141 71.1213314 79 67 C78.375 63.4375 78.375 63.4375 79 60 C81.68930246 56.7445286 83.90551536 54.41113958 88.109375 53.5859375 C96.63130888 52.9051913 101.3945984 56.2624551 108.03125 61.03125 C110.82299442 63.27633705 110.82299442 63.27633705 114 63 C113.21625 62.566875 112.4325 62.13375 111.625 61.6875 C109 60 109 60 107 57 C106.46212033 53.60852711 106.45605654 50.39132096 107 47 C109.45077786 44.05906657 110.87471968 43.18754672 114.625 42.5625 C117 43 117 43 118.8125 44.1875 C120.36678206 46.55982525 120.22537188 48.22041345 120 51 C118.35 51.33 116.7 51.66 115 52 C114.01 50.02 114.01 50.02 113 48 C112.34 48 111.68 48 111 48 C110.59182245 52.98567094 110.59182245 52.98567094 112.5625 57.4375 C115.94631737 59.6066137 118.03955072 59.47798526 122 59 C125.156814 57.80874943 127.27820564 56.91864736 129.375 54.25 C130.52496033 50.11014281 130.66730002 46.49314296 128.8984375 42.53515625 C126.52049096 39.35966796 123.74339579 37.71325452 120.3125 35.875 C119.68400146 35.52953125 119.05550293 35.1840625 118.40795898 34.828125 C108.76625444 29.60650157 108.76625444 29.60650157 98 29 C95.37716666 30.28892287 95.37716666 30.28892287 94 33 C93.68178992 36.03082057 93.76656333 38.96532334 94 42 C95.32 42.66 96.64 43.32 98 44 C97.690625 43.071875 97.690625 43.071875 97.375 42.125 C97.25125 41.42375 97.1275 40.7225 97 40 C97.99 39.01 97.99 39.01 99 38 C100.32 38 101.64 38 103 38 C103.21231713 41.11398457 103.21590497 43.45304074 102.0625 46.375 C99.17517582 48.64986148 96.90102972 48.61397108 93.29296875 48.4609375 C89.40913427 47.68020076 87.6781764 45.87903963 85 43 C83.76465955 39.29397865 83.54471255 36.90246386 84 33 C86.14044303 29.43020071 88.7988789 26.8007474 92.25 24.5 C103.13047114 22.52173252 114.18952313 27.57456456 123.75 32.3125 C128.37037856 34.4496414 132.98105904 34.77911358 138 34 C138.99 33.34 139.98 32.68 141 32 C137.2114916 51.70024366 126.41856711 67.88984537 109.8125 79.1640625 C92.37993158 90.05878815 72.47402147 93.36162966 52.23046875 89.1484375 C33.0071815 84.17228419 18.01746448 70.65529953 8 54 C-1.07993223 37.67469986 -3.74818059 18.31428076 0 0 Z " fill="#CF9B3E" transform="translate(658,529)"/>
<path d="M0 0 C4.03700642 2.33643595 7.24706887 4.52379955 8.8203125 9.046875 C9.33314167 13.89677369 9.48766931 18.34140759 7.6953125 22.921875 C1.69658369 29.72043432 1.69658369 29.72043432 -2.58203125 30.46484375 C-7.80115062 30.62965805 -11.78848266 30.07889739 -16.1796875 27.046875 C-20.76304821 22.09189045 -21.54864473 18.11298645 -21.453125 11.55078125 C-20.971518 7.14063717 -19.03043669 4.54621612 -15.63671875 1.796875 C-10.66982775 -1.47649939 -5.53078621 -2.41847999 0 0 Z " fill="#D29D3E" transform="translate(735.1796875,527.953125)"/>
<path d="M0 0 C1 2 1 2 0.8125 4.8125 C1.04638771 8.78859099 2.26750299 10.18713544 5 13 C7.98594424 14.49297212 10.70853624 14.11755228 14 14 C14.66 13.67 15.32 13.34 16 13 C16 11.02 16 9.04 16 7 C15.34 6.67 14.68 6.34 14 6 C13.67 6.99 13.34 7.98 13 9 C11.68 8.67 10.36 8.34 9 8 C9 6.35 9 4.7 9 3 C12.51536439 1.2423178 16.2820494 2.05565376 20 3 C22.66346536 5.1437648 23.7026198 6.58458461 24.40625 9.93359375 C24.7176829 14.05229389 24.31428112 15.60077804 21.6875 18.9375 C17.47059864 22.17372662 14.22117219 22.42796493 9 22 C3.83724896 20.10010762 -0.76916255 16.97338254 -5.3359375 13.953125 C-6.96963139 12.83432795 -6.96963139 12.83432795 -9 13 C-8.195625 13.78375 -7.39125 14.5675 -6.5625 15.375 C-3.0093471 19.01481516 -3.0093471 19.01481516 -2.98046875 22.05859375 C-3.53511637 28.4318089 -3.53511637 28.4318089 -5.6875 31.0625 C-8.68587709 32.27805828 -10.79321507 32.4093768 -14 32 C-15.9375 30.8125 -15.9375 30.8125 -17 29 C-16.6875 26.3125 -16.6875 26.3125 -16 24 C-14.125 23.375 -14.125 23.375 -12 23 C-10 25 -10 25 -10 28 C-9.34 28.33 -8.68 28.66 -8 29 C-7.07477344 25.06778712 -6.60381168 22.82839377 -8.375 19.125 C-12.04248668 16.15608221 -15.3912869 16.10832445 -20 16 C-14.55945831 8.98456466 -8.05509462 3.8048258 0 0 Z " fill="#CD9A3E" transform="translate(697,481)"/>
<path d="M0 0 C2 2 2 2 2 6 C1.01 6.495 1.01 6.495 0 7 C5.15998377 6.62590749 5.15998377 6.62590749 9.4375 3.9375 C9.953125 3.298125 10.46875 2.65875 11 2 C12.23402862 6.77092956 12.11265112 11.42469446 12.0625 16.3125 C12.05798828 17.14845703 12.05347656 17.98441406 12.04882812 18.84570312 C12.03710548 20.89716649 12.01917203 22.94859273 12 25 C10.5 23.625 10.5 23.625 9 22 C9 21.34 9 20.68 9 20 C5.62902617 18.50178941 3.79557881 18 0 18 C0.66 18.66 1.32 19.32 2 20 C1.46428571 23.53571429 1.46428571 23.53571429 0 25 C-3.59732795 25.39970311 -5.34200653 25.5117727 -8.25 23.25 C-9.83145927 21.21669523 -10.98828546 19.36066727 -12 17 C-12.99 17.66 -13.98 18.32 -15 19 C-18.32240324 18.6758631 -19.60776303 18.39223697 -22 16 C-22.25 12.5 -22.25 12.5 -22 9 C-20 7 -20 7 -17 6.8125 C-14 7 -14 7 -12 8 C-11.401875 7.05125 -10.80375 6.1025 -10.1875 5.125 C-7.1937039 0.84814843 -5.16211138 -0.52944732 0 0 Z " fill="#D29D3E" transform="translate(788,530)"/>
<path d="M0 0 C0.2475 0.53625 0.495 1.0725 0.75 1.625 C4.37495193 8.51240867 7.70629021 11.45093216 14.5625 14.8125 C15.33013672 15.20630859 16.09777344 15.60011719 16.88867188 16.00585938 C22.93531238 19.07926078 28.10762213 21.09481815 35 20 C38.09623426 17.4323911 38.85529697 15.88630606 39.5 11.9375 C38.89632752 8.39092417 37.7479865 7.23273903 35 5 C35 5.33 35 5.66 35 6 C34.67449498 7.66821323 34.34153937 9.33499557 34 11 C32.0625 11.5625 32.0625 11.5625 30 12 C29 11 29 11 28.625 8.1875 C29 5 29 5 31.125 2.625 C34.54157074 0.6938948 36.13485325 0.36895563 40 1 C43.03522895 2.63435405 45.28352297 4.055553 47.375 6.8125 C48.57562409 11.0146843 48.54605332 14.61880631 46.9375 18.6875 C43.33986322 22.98145358 39.7952996 24.75237247 34.375 25.5 C27.01525228 25.07621414 19.84782495 22.21895056 13.109375 19.3984375 C12.45590088 19.12596191 11.80242676 18.85348633 11.12915039 18.57275391 C9.28062679 17.7894615 7.44270029 16.98129871 5.60546875 16.171875 C1.41045549 14.80838207 -1.62340622 14.78815168 -6 15 C-5.54979057 9.14727744 -2.96160773 4.91779881 0 0 Z " fill="#CE9A3E" transform="translate(668,507)"/>
<path d="M0 0 C2.875 1.625 2.875 1.625 5 4 C5.3125 7.25 5.3125 7.25 5 10 C3.0625 10.5625 3.0625 10.5625 1 11 C0 10 0 10 -0.0625 6.9375 C-0.0315625 5.4834375 -0.0315625 5.4834375 0 4 C-1.98 4.99 -1.98 4.99 -4 6 C-4.36420386 11.89668414 -4.36420386 11.89668414 -3 17.5625 C-0.46155316 19.38700867 1.61712617 19.55175404 4.703125 19.3828125 C9.11489565 18.64751739 12.97851945 16.90428932 17 15 C18.43859375 14.34644531 18.43859375 14.34644531 19.90625 13.6796875 C26.30151529 10.53362958 30.00110133 7.52798937 33 1 C35.87246249 3.70349411 37.41137857 6.36886531 39 10 C39 10.99 39 11.98 39 13 C38.40501709 13.09071777 37.81003418 13.18143555 37.19702148 13.27490234 C29.31409018 14.64245118 22.53182536 17.56563595 15.29882812 20.8984375 C8.83379112 23.71289884 3.06470938 25.05396388 -4 24 C-8.16192938 22.26746734 -11.11416259 20.43948578 -13.5 16.5625 C-14.90649983 9.35418839 -14.90649983 9.35418839 -12.7265625 6.09765625 C-8.7409279 1.34405791 -6.47693719 -0.63499384 0 0 Z " fill="#CD9A3E" transform="translate(756,508)"/>
<path d="M0 0 C1.94343258 1.07265426 3.87955399 2.15856192 5.8125 3.25 C6.89144531 3.85328125 7.97039063 4.4565625 9.08203125 5.078125 C11.80165849 6.86936543 13.28343286 8.27758474 15 11 C14.19949219 11.20302734 14.19949219 11.20302734 13.3828125 11.41015625 C8.54375087 12.80829343 5.17641502 14.50774751 1.25 17.6875 C-3.79741756 21.41579591 -7.85390296 21.73434746 -14.01953125 21.63671875 C-17.66885146 20.85711299 -19.40236723 19.65804284 -22 17 C-23.21438929 13.9962672 -23.40621602 11.20967867 -23 8 C-20.83653764 5.19334613 -19.15193199 3.575966 -16 2 C-12.4375 1.875 -12.4375 1.875 -9 2 C-8 3 -8 3 -7.9375 5.5625 C-7.958125 6.366875 -7.97875 7.17125 -8 8 C-9.32 8.33 -10.64 8.66 -12 9 C-12.66 8.01 -13.32 7.02 -14 6 C-15.41577477 7.18424326 -15.41577477 7.18424326 -15.0625 10.5625 C-15.041875 11.696875 -15.02125 12.83125 -15 14 C-7.77967794 14.2993987 -7.77967794 14.2993987 -1 12 C-0.83126522 10.56274129 -0.66509263 9.12518162 -0.5 7.6875 C-0.36078125 6.48673828 -0.36078125 6.48673828 -0.21875 5.26171875 C0.04813463 2.88103445 0.04813463 2.88103445 0 0 Z " fill="#D09B3E" transform="translate(760,481)"/>
<path d="M0 0 C1.90625 0.4140625 1.90625 0.4140625 4.40625 1.9765625 C6.49017818 5.36294579 6.46427097 7.50791568 5.90625 11.4140625 C3.75839665 14.67879959 2.21100404 15.3198658 -1.53125 16.4765625 C-5.09375 16.4140625 -5.09375 16.4140625 -8.03125 14.3515625 C-10.09375 11.4140625 -10.09375 11.4140625 -10.65625 8.4140625 C-9.44279363 1.94229519 -6.36946978 -0.45156689 0 0 Z " fill="#14304F" transform="translate(731.09375,534.5859375)"/>
<path d="M0 0 C1.8125 2 1.8125 2 3 4 C2.07767578 4.05607422 2.07767578 4.05607422 1.13671875 4.11328125 C0.32847656 4.17902344 -0.47976563 4.24476563 -1.3125 4.3125 C-2.11300781 4.37050781 -2.91351562 4.42851562 -3.73828125 4.48828125 C-6.42904349 5.09707201 -7.39296613 5.77487619 -9 8 C-9.2503577 11.62535976 -9.2503577 11.62535976 -9 15 C-8.34 15.33 -7.68 15.66 -7 16 C-6.67 14.68 -6.34 13.36 -6 12 C-4.125 11.375 -4.125 11.375 -2 11 C-1.34 11.66 -0.68 12.32 0 13 C-0.25 16.0625 -0.25 16.0625 -1 19 C-3.84083641 20.42041821 -5.85477278 20.31452272 -9 20 C-12.20829293 17.39868141 -13.77184565 15.40151958 -14.4375 11.3125 C-13.82720877 6.69172357 -11.44732017 4.04471344 -8 1 C-4.97923697 -0.00692101 -3.1408885 -0.39261106 0 0 Z " fill="#C4953F" transform="translate(778,493)"/>
<path d="M0 0 C1.19496094 -0.00386719 1.19496094 -0.00386719 2.4140625 -0.0078125 C3.24679687 -0.00007813 4.07953125 0.00765625 4.9375 0.015625 C5.77023437 0.00789063 6.60296875 0.00015625 7.4609375 -0.0078125 C8.25757813 -0.00523437 9.05421875 -0.00265625 9.875 0 C10.60589844 0.00225586 11.33679688 0.00451172 12.08984375 0.00683594 C13.9375 0.265625 13.9375 0.265625 15.9375 2.265625 C14.2978125 3.3484375 14.2978125 3.3484375 12.625 4.453125 C9.45112598 6.69275385 7.8028473 8.82945893 5.9375 12.265625 C5.2775 12.265625 4.6175 12.265625 3.9375 12.265625 C3.36 11.358125 2.7825 10.450625 2.1875 9.515625 C-0.3383091 5.86723408 -2.30807868 4.48414669 -6.0625 2.265625 C-3.69681778 -0.10005722 -3.21017774 0.00990796 0 0 Z " fill="#CC993E" transform="translate(724.0625,473.734375)"/>
</svg>
